<?xml version="1.0" encoding="UTF-8" standalone="no" ?>
<!DOCTYPE svg PUBLIC "-//W3C//DTD SVG 1.1//EN" "http://www.w3.org/Graphics/SVG/1.1/DTD/svg11.dtd">
<svg xmlns="http://www.w3.org/2000/svg" xmlns:xlink="http://www.w3.org/1999/xlink" version="1.1" width="500" height="500" viewBox="0 0 500 500" xml:space="preserve">
<desc>Created with Fabric.js 3.6.3</desc>
<defs>
</defs>
<g transform="matrix(4.16 0 0 4.16 252.43952 235.27392)"  >
<linearGradient id="SVGID_18981" gradientUnits="userSpaceOnUse" gradientTransform="matrix(1 0 0 1 -40.259499999999996 -34.662)"  x1="0" y1="0" x2="80.51899999999999" y2="69.324">
<stop offset="0%" style="stop-color:rgb(125,20,29);stop-opacity: 1"/>
<stop offset="100%" style="stop-color:rgb(255,30,39);stop-opacity: 1"/>
</linearGradient>
<polygon style="stroke: none; stroke-width: 1; stroke-dasharray: none; stroke-linecap: butt; stroke-dashoffset: 0; stroke-linejoin: miter; stroke-miterlimit: 4; fill: url(#SVGID_18981); fill-rule: nonzero; opacity: 1;"  points="40.2595,34.662000000000006 0.0005000000000094929,-34.66199999999999 -30.030499999999993,17.047000000000004 -19.653499999999994,17.047000000000004 -0.000499999999995282,-16.787999999999997 24.758500000000012,25.840000000000003 -11.878499999999995,25.840000000000003 -11.878499999999995,25.870000000000005 -35.153499999999994,25.870000000000005 -40.259499999999996,34.662000000000006 " />
</g>
<g transform="matrix(1 0 0 1 245.57384374999992 326.90700000000004)" style=""  ><path fill="#000000" opacity="1" d="M-125.60 4.89L-125.60 4.89Q-125.60 5.26-125.22 5.26L-125.22 5.26L-113.05 5.26L-113.05 10.68L-131.02 10.68L-131.02-13.08L-125.60-13.08L-125.60 4.89Z"/><path fill="#000000" opacity="1" d="M-90.07-7.59L-103.70-7.59Q-103.97-7.59-103.97-7.32L-103.97-7.32L-103.97-2.81Q-103.97-2.50-103.70-2.50L-103.70-2.50L-92.68-2.50L-92.68 2.89L-103.70 2.89Q-103.97 2.89-103.97 3.19L-103.97 3.19L-103.97 4.95Q-103.97 5.23-103.70 5.23L-103.70 5.23L-90.07 5.23L-90.07 10.65L-109.39 10.65L-109.39-13.08L-90.07-13.08L-90.07-7.59Z"/><path fill="#000000" opacity="1" d="M-69.83-13.08L-64.75-13.08L-64.75 10.68L-70.17 10.68L-70.17 0.78Q-70.17 0.68-70.29 0.65Q-70.41 0.61-70.47 0.72L-70.47 0.72L-73.49 7.02L-77.73 7.02L-80.78 0.75Q-80.85 0.61-80.95 0.65Q-81.05 0.68-81.05 0.82L-81.05 0.82L-81.05 10.68L-86.48 10.68L-86.48-13.08L-81.42-13.08L-75.76-1.35Q-75.70-1.28-75.61-1.28Q-75.53-1.28-75.49-1.35L-75.49-1.35L-69.83-13.08Z"/><path fill="#000000" opacity="1" d="M-46.51-13.08L-37.96 10.68L-43.73 10.68L-44.61 8.28Q-44.68 8.04-44.91 8.04L-44.91 8.04L-55.15 8.04Q-55.36 8.04-55.46 8.28L-55.46 8.28L-56.30 10.68L-62.07 10.68L-53.52-13.08L-46.51-13.08ZM-50.34-5.96L-53.25 2.17Q-53.32 2.34-53.22 2.48Q-53.12 2.62-52.95 2.62L-52.95 2.62L-47.08 2.62Q-46.64 2.62-46.78 2.17L-46.78 2.17L-49.69-5.96Q-49.80-6.20-50.03-6.20Q-50.27-6.20-50.34-5.96L-50.34-5.96Z"/></g><g transform="matrix(1 0 0 1 251.25 402.84000000000003)" style=""  ><path fill="#000000" opacity="1" d="M-153.83 5.34L-153.83 4.80L-152.64 4.80Q-152.41 4.80-152.32 4.70Q-152.24 4.61-152.24 4.39L-152.24 4.39L-152.24-5.81Q-152.24-6.05-152.32-6.13Q-152.41-6.22-152.64-6.22L-152.64-6.22L-153.83-6.22L-153.83-6.76L-147.78-6.76Q-146.59-6.76-145.66-6.36Q-144.74-5.96-144.22-5.24Q-143.70-4.52-143.70-3.60L-143.70-3.60Q-143.70-2.67-144.22-1.94Q-144.74-1.20-145.66-0.79Q-146.59-0.37-147.78-0.37L-147.78-0.37L-149.72-0.37L-149.72 4.39Q-149.72 4.61-149.63 4.70Q-149.53 4.80-149.31 4.80L-149.31 4.80L-147.82 4.80L-147.82 5.34L-153.83 5.34ZM-149.72-0.92L-148.04-0.92Q-147.15-0.92-146.79-1.63Q-146.42-2.34-146.42-3.60L-146.42-3.60Q-146.42-4.84-146.78-5.53Q-147.14-6.22-148.04-6.22L-148.04-6.22L-149.31-6.22Q-149.53-6.22-149.63-6.13Q-149.72-6.05-149.72-5.81L-149.72-5.81L-149.72-0.92Z"/><path fill="#000000" opacity="1" d="M-129.85 5.75Q-130.93 5.75-131.57 5.10Q-132.21 4.46-132.21 3.20L-132.21 3.20L-132.21 1.09Q-132.21 0.27-132.61-0.29Q-133.01-0.85-133.84-0.85L-133.84-0.85L-134.79-0.85L-134.79 4.39Q-134.79 4.61-134.70 4.70Q-134.61 4.80-134.38 4.80L-134.38 4.80L-132.89 4.80L-132.89 5.34L-138.91 5.34L-138.91 4.80L-137.72 4.80Q-137.48 4.80-137.39 4.70Q-137.31 4.61-137.31 4.39L-137.31 4.39L-137.31-5.81Q-137.31-6.05-137.39-6.13Q-137.48-6.22-137.72-6.22L-137.72-6.22L-138.91-6.22L-138.91-6.76L-133.40-6.76Q-131.56-6.76-130.44-5.96Q-129.32-5.15-129.32-3.77L-129.32-3.77Q-129.32-2.60-130.18-1.92Q-131.04-1.24-132.45-1.07L-132.45-1.07L-132.45-0.95Q-131.12-0.71-130.41-0.01Q-129.69 0.70-129.69 2.20L-129.69 2.20L-129.69 4.08Q-129.69 4.80-129.22 4.80L-129.22 4.80Q-128.77 4.80-128.57 4.07Q-128.37 3.33-128.37 2.28L-128.37 2.28L-127.82 2.28Q-127.82 3.93-128.26 4.84Q-128.71 5.75-129.85 5.75L-129.85 5.75ZM-134.79-1.39L-133.65-1.39Q-132.75-1.39-132.40-2.05Q-132.04-2.72-132.04-3.91L-132.04-3.91Q-132.04-5.06-132.40-5.64Q-132.75-6.22-133.65-6.22L-133.65-6.22L-134.38-6.22Q-134.61-6.22-134.70-6.13Q-134.79-6.05-134.79-5.81L-134.79-5.81L-134.79-1.39Z"/><path fill="#000000" opacity="1" d="M-123.50 5.34L-123.50 4.80L-122.31 4.80Q-122.08 4.80-121.99 4.70Q-121.91 4.61-121.91 4.39L-121.91 4.39L-121.91-5.81Q-121.91-6.05-121.99-6.13Q-122.08-6.22-122.31-6.22L-122.31-6.22L-123.50-6.22L-123.50-6.76L-113.95-6.76L-113.85-2.82L-114.39-2.82Q-114.39-2.94-114.57-3.58Q-114.75-4.23-115.07-4.76L-115.07-4.76Q-115.46-5.44-115.97-5.83Q-116.48-6.22-117.11-6.22L-117.11-6.22L-118.98-6.22Q-119.20-6.22-119.30-6.13Q-119.39-6.05-119.39-5.81L-119.39-5.81L-119.39-1.12L-118.52-1.12Q-118.06-1.12-117.67-1.49Q-117.28-1.87-117.05-2.42Q-116.82-2.97-116.82-3.47L-116.82-3.47L-116.28-3.47L-116.28 1.86L-116.82 1.86Q-116.82 1.35-117.05 0.79Q-117.28 0.24-117.67-0.13Q-118.06-0.51-118.52-0.51L-118.52-0.51L-119.39-0.51L-119.39 4.39Q-119.39 4.61-119.30 4.70Q-119.20 4.80-118.98 4.80L-118.98 4.80L-117.13 4.80Q-116.19 4.80-115.57 4.05Q-114.94 3.30-114.61 2.38L-114.61 2.38Q-114.48 1.99-114.38 1.41Q-114.27 0.84-114.26 0.65L-114.26 0.65L-113.71 0.65L-113.81 5.34L-123.50 5.34Z"/><path fill="#000000" opacity="1" d="M-103.31 5.65L-107.15-5.23Q-107.34-5.79-107.64-6.01Q-107.93-6.22-108.49-6.22L-108.49-6.22L-109.05-6.22L-109.05-6.76L-103.16-6.76L-103.16-6.22L-104.01-6.22Q-104.24-6.22-104.41-6.09Q-104.58-5.96-104.58-5.79L-104.58-5.79Q-104.58-5.61-104.52-5.42L-104.52-5.42L-102.00 1.74L-100.04-4.33Q-99.87-4.84-99.87-5.20L-99.87-5.20Q-99.87-5.57-100.11-5.90Q-100.35-6.22-100.83-6.22L-100.83-6.22L-101.68-6.22L-101.68-6.76L-97.09-6.76L-97.09-6.22L-97.61-6.22Q-98.75-6.22-99.25-4.67L-99.25-4.67L-102.59 5.65L-103.31 5.65Z"/><path fill="#000000" opacity="1" d="M-92.67 5.34L-92.67 4.80L-91.48 4.80Q-91.24 4.80-91.15 4.70Q-91.07 4.61-91.07 4.39L-91.07 4.39L-91.07-5.81Q-91.07-6.05-91.15-6.13Q-91.24-6.22-91.48-6.22L-91.48-6.22L-92.67-6.22L-92.67-6.76L-83.11-6.76L-83.01-2.82L-83.55-2.82Q-83.55-2.94-83.73-3.58Q-83.91-4.23-84.23-4.76L-84.23-4.76Q-84.63-5.44-85.14-5.83Q-85.65-6.22-86.27-6.22L-86.27-6.22L-88.14-6.22Q-88.37-6.22-88.46-6.13Q-88.55-6.05-88.55-5.81L-88.55-5.81L-88.55-1.12L-87.69-1.12Q-87.23-1.12-86.84-1.49Q-86.44-1.87-86.22-2.42Q-85.99-2.97-85.99-3.47L-85.99-3.47L-85.44-3.47L-85.44 1.86L-85.99 1.86Q-85.99 1.35-86.22 0.79Q-86.44 0.24-86.84-0.13Q-87.23-0.51-87.69-0.51L-87.69-0.51L-88.55-0.51L-88.55 4.39Q-88.55 4.61-88.46 4.70Q-88.37 4.80-88.14 4.80L-88.14 4.80L-86.29 4.80Q-85.36 4.80-84.73 4.05Q-84.10 3.30-83.78 2.38L-83.78 2.38Q-83.64 1.99-83.54 1.41Q-83.44 0.84-83.42 0.65L-83.42 0.65L-82.87 0.65L-82.98 5.34L-92.67 5.34Z"/><path fill="#000000" opacity="1" d="M-68.93 5.65L-75.29-3.45L-75.36-3.45L-75.36 3.03Q-75.36 3.81-74.76 4.30Q-74.15 4.80-73.22 4.80L-73.22 4.80L-73.22 5.34L-78.18 5.34L-78.18 4.80Q-77.25 4.80-76.64 4.30Q-76.04 3.81-76.04 3.03L-76.04 3.03L-76.04-4.23Q-76.04-4.42-76.07-4.50Q-76.11-4.59-76.23-4.76L-76.23-4.76L-76.91-5.78Q-77.08-6.03-77.28-6.13Q-77.49-6.22-77.88-6.22L-77.88-6.22L-78.18-6.22L-78.18-6.76L-74.41-6.76L-68.97 1.01L-68.97-4.45Q-68.97-5.23-69.57-5.73Q-70.18-6.22-71.11-6.22L-71.11-6.22L-71.11-6.76L-66.15-6.76L-66.15-6.22Q-67.08-6.22-67.69-5.73Q-68.29-5.23-68.29-4.45L-68.29-4.45L-68.29 5.65L-68.93 5.65Z"/><path fill="#000000" opacity="1" d="M-56.90 5.65Q-58.48 5.65-59.59 4.75Q-60.71 3.86-61.27 2.41Q-61.83 0.95-61.83-0.71L-61.83-0.71Q-61.83-2.43-61.25-3.88Q-60.67-5.34-59.59-6.20Q-58.51-7.07-57.07-7.07L-57.07-7.07Q-56.44-7.07-55.90-6.86Q-55.37-6.64-54.77-6.24L-54.77-6.24Q-54.38-5.98-54.20-5.98L-54.20-5.98Q-54.06-5.98-53.97-6.06Q-53.89-6.13-53.82-6.30L-53.82-6.30L-53.52-6.93L-52.95-6.93L-52.95-1.71L-53.50-1.71Q-53.89-3.91-54.85-5.22Q-55.81-6.53-57.07-6.53L-57.07-6.53Q-57.87-6.53-58.40-5.74Q-58.94-4.96-58.94-3.26L-58.94-3.26L-58.94 1.84Q-58.94 3.52-58.34 4.31Q-57.73 5.10-56.90 5.10L-56.90 5.10Q-54.88 5.10-53.89 3.25L-53.89 3.25Q-53.40 2.35-53.23 0.67L-53.23 0.67L-52.61 0.67Q-52.67 1.41-52.84 2.17Q-53.02 2.93-53.31 3.49L-53.31 3.49Q-53.84 4.51-54.75 5.08Q-55.66 5.65-56.90 5.65L-56.90 5.65Z"/><path fill="#000000" opacity="1" d="M-47.75 5.34L-47.75 4.80L-46.56 4.80Q-46.32 4.80-46.24 4.70Q-46.15 4.61-46.15 4.39L-46.15 4.39L-46.15-5.81Q-46.15-6.05-46.24-6.13Q-46.32-6.22-46.56-6.22L-46.56-6.22L-47.75-6.22L-47.75-6.76L-42.04-6.76L-42.04-6.22L-43.23-6.22Q-43.45-6.22-43.55-6.13Q-43.64-6.05-43.64-5.81L-43.64-5.81L-43.64 4.39Q-43.64 4.61-43.55 4.70Q-43.45 4.80-43.23 4.80L-43.23 4.80L-42.04 4.80L-42.04 5.34L-47.75 5.34Z"/><path fill="#000000" opacity="1" d="M-32.32-7.58L-32.66-7.89L-31.14-10.23Q-30.96-10.54-30.75-10.66Q-30.55-10.78-30.31-10.78L-30.31-10.78Q-30.00-10.78-29.80-10.59Q-29.60-10.40-29.60-10.10L-29.60-10.10Q-29.60-9.64-30.07-9.28L-30.07-9.28L-32.32-7.58ZM-32.11 5.65Q-33.42 5.65-34.59 4.75Q-35.75 3.84-36.45 2.37Q-37.14 0.90-37.14-0.71L-37.14-0.71Q-37.14-2.33-36.45-3.80Q-35.75-5.27-34.59-6.17Q-33.42-7.07-32.11-7.07L-32.11-7.07Q-30.80-7.07-29.64-6.17Q-28.47-5.27-27.78-3.80Q-27.08-2.33-27.08-0.71L-27.08-0.71Q-27.08 0.90-27.78 2.37Q-28.47 3.84-29.64 4.75Q-30.80 5.65-32.11 5.65L-32.11 5.65ZM-32.11 5.10Q-31.08 5.10-30.52 4.35Q-29.97 3.59-29.97 1.84L-29.97 1.84L-29.97-3.26Q-29.97-5.01-30.52-5.77Q-31.08-6.53-32.11-6.53L-32.11-6.53Q-33.15-6.53-33.70-5.77Q-34.25-5.01-34.25-3.26L-34.25-3.26L-34.25 1.84Q-34.25 3.59-33.70 4.35Q-33.15 5.10-32.11 5.10L-32.11 5.10Z"/><path fill="#000000" opacity="1" d="M-13.17 5.65L-19.53-3.45L-19.60-3.45L-19.60 3.03Q-19.60 3.81-19.00 4.30Q-18.39 4.80-17.46 4.80L-17.46 4.80L-17.46 5.34L-22.42 5.34L-22.42 4.80Q-21.49 4.80-20.88 4.30Q-20.28 3.81-20.28 3.03L-20.28 3.03L-20.28-4.23Q-20.28-4.42-20.31-4.50Q-20.35-4.59-20.47-4.76L-20.47-4.76L-21.15-5.78Q-21.32-6.03-21.52-6.13Q-21.73-6.22-22.12-6.22L-22.12-6.22L-22.42-6.22L-22.42-6.76L-18.65-6.76L-13.21 1.01L-13.21-4.45Q-13.21-5.23-13.81-5.73Q-14.42-6.22-15.35-6.22L-15.35-6.22L-15.35-6.76L-10.39-6.76L-10.39-6.22Q-11.32-6.22-11.93-5.73Q-12.53-5.23-12.53-4.45L-12.53-4.45L-12.53 5.65L-13.17 5.65Z"/><path fill="#000000" opacity="1" d=""/><path fill="#000000" opacity="1" d="M4.71 5.65Q3.18 5.65 2.21 4.94Q1.24 4.24 1.24 2.94L1.24 2.94Q1.24 1.86 2.04 0.89Q2.84-0.07 4.40-1.15L4.40-1.15L4.79-1.43L4.61-1.71Q4.15-2.43 3.95-2.96Q3.76-3.48 3.76-4.28L3.76-4.28Q3.76-5.15 4.16-5.79Q4.56-6.42 5.21-6.76Q5.87-7.09 6.63-7.09L6.63-7.09Q7.34-7.09 7.79-6.76Q8.25-6.42 8.45-5.95Q8.65-5.47 8.65-4.98L8.65-4.98Q8.65-4.08 8.15-3.41Q7.65-2.75 6.66-2.02L6.66-2.02L9.66 2.47Q10.17 1.86 10.49 1.13Q10.81 0.41 10.81-0.07L10.81-0.07Q10.81-0.39 10.63-0.57Q10.44-0.75 10.17-0.75L10.17-0.75L9.52-0.75L9.52-1.29L13.11-1.29L13.11-0.75L12.97-0.75Q12.05-0.75 11.48 0.48L11.48 0.48Q10.71 2.08 9.98 2.93L9.98 2.93Q10.49 3.78 10.85 4.20Q11.22 4.63 11.63 4.63L11.63 4.63Q11.97 4.63 12.23 4.34Q12.50 4.05 12.73 3.56L12.73 3.56L13.07 3.73Q12.84 4.41 12.22 5.03Q11.61 5.65 10.74 5.65L10.74 5.65Q10.18 5.65 9.60 5.28Q9.01 4.92 8.60 4.30L8.60 4.30Q7.97 4.81 6.87 5.23Q5.76 5.65 4.71 5.65L4.71 5.65ZM6.34-2.53Q7.11-3.11 7.51-3.68Q7.91-4.25 7.91-5.11L7.91-5.11Q7.91-5.73 7.56-6.13Q7.21-6.54 6.65-6.54L6.65-6.54Q6.12-6.54 5.72-6.19Q5.32-5.83 5.32-5.23L5.32-5.23Q5.32-4.52 5.51-4.05Q5.70-3.58 6.34-2.53L6.34-2.53ZM6.27 4.63Q6.85 4.63 7.37 4.41Q7.89 4.20 8.30 3.84L8.30 3.84L5.13-0.93Q4.56-0.41 4.24-0.01Q3.93 0.38 3.77 0.87Q3.62 1.36 3.62 2.06L3.62 2.06Q3.62 2.84 4.02 3.43Q4.42 4.01 5.04 4.32Q5.66 4.63 6.27 4.63L6.27 4.63Z"/><path fill="#000000" opacity="1" d=""/><path fill="#000000" opacity="1" d="M30.50 5.65Q29.75 5.65 29.16 5.43Q28.56 5.22 28.17 4.90L28.17 4.90Q27.78 4.61 27.61 4.50Q27.44 4.39 27.29 4.39L27.29 4.39Q26.93 4.39 26.84 4.97L26.84 4.97L26.76 5.51L26.23 5.51L26.13 0.14L26.67 0.14Q26.91 1.43 27.48 2.57Q28.05 3.71 28.86 4.41Q29.67 5.10 30.60 5.10L30.60 5.10Q31.94 5.10 32.44 4.51Q32.93 3.91 32.93 3.16L32.93 3.16Q32.93 2.72 32.61 2.37Q32.30 2.03 31.71 1.63L31.71 1.63L28.07-0.71Q27.27-1.22 26.72-1.99Q26.16-2.75 26.16-3.81L26.16-3.81Q26.16-5.45 27.12-6.26Q28.08-7.07 29.50-7.07L29.50-7.07Q30.70-7.07 31.91-6.22L31.91-6.22Q32.30-5.91 32.52-5.91L32.52-5.91Q32.83-5.91 32.90-6.30L32.90-6.30L33.00-6.76L33.54-6.76L33.71-2.34L33.17-2.34Q32.84-3.52 32.27-4.47Q31.69-5.42 30.93-5.97Q30.18-6.53 29.36-6.53L29.36-6.53Q28.46-6.53 28.02-6.17Q27.59-5.81 27.59-5.10L27.59-5.10Q27.59-4.13 29.10-3.14L29.10-3.14L32.76-0.78Q33.46-0.32 33.87 0.48Q34.29 1.28 34.29 2.14L34.29 2.14Q34.29 3.03 33.86 3.83Q33.44 4.63 32.59 5.14Q31.74 5.65 30.50 5.65L30.50 5.65Z"/><path fill="#000000" opacity="1" d="M39.19 5.34L39.19 4.80L40.38 4.80Q40.61 4.80 40.70 4.70Q40.78 4.61 40.78 4.39L40.78 4.39L40.78-5.81Q40.78-6.05 40.70-6.13Q40.61-6.22 40.38-6.22L40.38-6.22L39.19-6.22L39.19-6.76L48.74-6.76L48.84-2.82L48.30-2.82Q48.30-2.94 48.12-3.58Q47.94-4.23 47.62-4.76L47.62-4.76Q47.23-5.44 46.72-5.83Q46.21-6.22 45.58-6.22L45.58-6.22L43.71-6.22Q43.49-6.22 43.39-6.13Q43.30-6.05 43.30-5.81L43.30-5.81L43.30-1.12L44.17-1.12Q44.63-1.12 45.02-1.49Q45.41-1.87 45.64-2.42Q45.87-2.97 45.87-3.47L45.87-3.47L46.41-3.47L46.41 1.86L45.87 1.86Q45.87 1.35 45.64 0.79Q45.41 0.24 45.02-0.13Q44.63-0.51 44.17-0.51L44.17-0.51L43.30-0.51L43.30 4.39Q43.30 4.61 43.39 4.70Q43.49 4.80 43.71 4.80L43.71 4.80L45.56 4.80Q46.50 4.80 47.12 4.05Q47.75 3.30 48.08 2.38L48.08 2.38Q48.21 1.99 48.31 1.41Q48.42 0.84 48.43 0.65L48.43 0.65L48.98 0.65L48.88 5.34L39.19 5.34Z"/><path fill="#000000" opacity="1" d="M58.80 5.65Q57.36 5.65 56.28 4.78Q55.20 3.91 54.62 2.46Q54.04 1.01 54.04-0.71L54.04-0.71Q54.04-2.41 54.69-3.87Q55.34-5.34 56.49-6.20Q57.65-7.07 59.11-7.07L59.11-7.07Q59.84-7.07 60.38-6.86Q60.91-6.64 61.52-6.24L61.52-6.24Q61.91-5.98 62.10-5.98L62.10-5.98Q62.32-5.98 62.48-6.30L62.48-6.30L62.76-6.93L63.33-6.93L63.33-2.04L62.80-2.04Q62.20-4.20 61.28-5.36Q60.35-6.53 59.11-6.53L59.11-6.53Q58.07-6.53 57.50-5.77Q56.93-5.01 56.93-3.26L56.93-3.26L56.93 1.84Q56.93 5.10 58.80 5.10L58.80 5.10Q59.69 5.10 60.25 4.35Q60.81 3.61 60.81 2.60L60.81 2.60L60.81 0.27Q60.81 0.04 60.72-0.05Q60.64-0.13 60.40-0.13L60.40-0.13L58.91-0.13L58.91-0.68L64.55-0.68L64.55-0.13L63.73-0.13Q63.51-0.13 63.42-0.05Q63.33 0.04 63.33 0.27L63.33 0.27L63.33 5.56L62.78 5.56L62.37 4.01Q62.32 3.84 62.22 3.72Q62.12 3.59 61.97 3.59L61.97 3.59Q61.66 3.59 61.44 3.95L61.44 3.95Q61.01 4.59 60.33 5.12Q59.65 5.65 58.80 5.65L58.80 5.65Z"/><path fill="#000000" opacity="1" d="M75.21 5.65Q73.68 5.65 72.68 5.04Q71.67 4.44 71.20 3.46Q70.74 2.48 70.74 1.31L70.74 1.31L70.74-5.81Q70.74-6.05 70.65-6.13Q70.57-6.22 70.33-6.22L70.33-6.22L69.24-6.22L69.24-6.76L74.75-6.76L74.75-6.22L73.66-6.22Q73.44-6.22 73.35-6.13Q73.25-6.05 73.25-5.81L73.25-5.81L73.25 1.97Q73.25 3.54 73.85 4.25Q74.44 4.97 75.68 4.97L75.68 4.97Q76.52 4.97 77.18 4.56Q77.84 4.15 78.22 3.47Q78.59 2.79 78.59 1.97L78.59 1.97L78.59-4.69Q78.59-5.45 78.07-5.84Q77.55-6.22 76.82-6.22L76.82-6.22L76.82-6.76L81.04-6.76L81.04-6.22Q80.31-6.22 79.79-5.84Q79.27-5.45 79.27-4.69L79.27-4.69L79.27 1.80Q79.27 2.88 78.79 3.75Q78.30 4.63 77.38 5.14Q76.45 5.65 75.21 5.65L75.21 5.65Z"/><path fill="#000000" opacity="1" d="M94.69 5.75Q93.60 5.75 92.96 5.10Q92.33 4.46 92.33 3.20L92.33 3.20L92.33 1.09Q92.33 0.27 91.93-0.29Q91.53-0.85 90.70-0.85L90.70-0.85L89.74-0.85L89.74 4.39Q89.74 4.61 89.84 4.70Q89.93 4.80 90.15 4.80L90.15 4.80L91.65 4.80L91.65 5.34L85.63 5.34L85.63 4.80L86.82 4.80Q87.06 4.80 87.14 4.70Q87.23 4.61 87.23 4.39L87.23 4.39L87.23-5.81Q87.23-6.05 87.14-6.13Q87.06-6.22 86.82-6.22L86.82-6.22L85.63-6.22L85.63-6.76L91.14-6.76Q92.97-6.76 94.10-5.96Q95.22-5.15 95.22-3.77L95.22-3.77Q95.22-2.60 94.36-1.92Q93.50-1.24 92.09-1.07L92.09-1.07L92.09-0.95Q93.42-0.71 94.13-0.01Q94.84 0.70 94.84 2.20L94.84 2.20L94.84 4.08Q94.84 4.80 95.32 4.80L95.32 4.80Q95.76 4.80 95.97 4.07Q96.17 3.33 96.17 2.28L96.17 2.28L96.71 2.28Q96.71 3.93 96.27 4.84Q95.83 5.75 94.69 5.75L94.69 5.75ZM89.74-1.39L90.88-1.39Q91.78-1.39 92.14-2.05Q92.50-2.72 92.50-3.91L92.50-3.91Q92.50-5.06 92.14-5.64Q91.78-6.22 90.88-6.22L90.88-6.22L90.15-6.22Q89.93-6.22 89.84-6.13Q89.74-6.05 89.74-5.81L89.74-5.81L89.74-1.39Z"/><path fill="#000000" opacity="1" d="M101.03 5.34L101.03 4.80L102.22 4.80Q102.46 4.80 102.54 4.70Q102.63 4.61 102.63 4.39L102.63 4.39L102.63-5.81Q102.63-6.05 102.54-6.13Q102.46-6.22 102.22-6.22L102.22-6.22L101.03-6.22L101.03-6.76L106.74-6.76L106.74-6.22L105.55-6.22Q105.33-6.22 105.24-6.13Q105.15-6.05 105.15-5.81L105.15-5.81L105.15 4.39Q105.15 4.61 105.24 4.70Q105.33 4.80 105.55 4.80L105.55 4.80L106.74 4.80L106.74 5.34L101.03 5.34Z"/><path fill="#000000" opacity="1" d="M111.50 5.34L111.50 4.80L112.69 4.80Q112.93 4.80 113.02 4.70Q113.10 4.61 113.10 4.39L113.10 4.39L113.10-5.81Q113.10-6.05 113.02-6.13Q112.93-6.22 112.69-6.22L112.69-6.22L111.50-6.22L111.50-6.76L117.83-6.76Q119.24-6.76 120.41-6.01Q121.58-5.25 122.27-3.90Q122.96-2.55 122.96-0.81L122.96-0.81Q122.96 0.92 122.27 2.33Q121.58 3.74 120.40 4.54Q119.22 5.34 117.83 5.34L117.83 5.34L111.50 5.34ZM116.03 4.80L117.54 4.80Q118.63 4.80 119.35 4.04Q120.07 3.28 120.07 1.84L120.07 1.84L120.07-3.26Q120.07-4.71 119.35-5.46Q118.63-6.22 117.54-6.22L117.54-6.22L116.03-6.22Q115.80-6.22 115.71-6.13Q115.62-6.05 115.62-5.81L115.62-5.81L115.62 4.39Q115.62 4.61 115.71 4.70Q115.80 4.80 116.03 4.80L116.03 4.80Z"/><path fill="#000000" opacity="1" d="M126.46 5.34L126.46 4.80L127.04 4.80Q127.55 4.80 127.94 4.40Q128.33 4.00 128.54 3.42L128.54 3.42L132.12-7.07L132.84-7.07L136.48 3.93Q136.77 4.80 137.48 4.80L137.48 4.80L138.16 4.80L138.16 5.34L132.19 5.34L132.19 4.80L133.42 4.80Q133.62 4.80 133.75 4.63Q133.88 4.47 133.88 4.25L133.88 4.25Q133.88 4.07 133.77 3.76L133.77 3.76L133.23 2.13L129.66 2.13L129.30 3.16Q129.12 3.64 129.12 4.03L129.12 4.03Q129.12 4.34 129.36 4.57Q129.61 4.80 130.00 4.80L130.00 4.80L130.80 4.80L130.80 5.34L126.46 5.34ZM131.48-3.18L129.88 1.50L133.03 1.50L131.48-3.18Z"/><path fill="#000000" opacity="1" d="M142.58 5.34L142.58 4.80L143.77 4.80Q144.01 4.80 144.09 4.70Q144.18 4.61 144.18 4.39L144.18 4.39L144.18-5.81Q144.18-6.05 144.09-6.13Q144.01-6.22 143.77-6.22L143.77-6.22L142.58-6.22L142.58-6.76L148.90-6.76Q150.31-6.76 151.49-6.01Q152.66-5.25 153.35-3.90Q154.04-2.55 154.04-0.81L154.04-0.81Q154.04 0.92 153.35 2.33Q152.66 3.74 151.48 4.54Q150.30 5.34 148.90 5.34L148.90 5.34L142.58 5.34ZM147.10 4.80L148.61 4.80Q149.70 4.80 150.42 4.04Q151.15 3.28 151.15 1.84L151.15 1.84L151.15-3.26Q151.15-4.71 150.42-5.46Q149.70-6.22 148.61-6.22L148.61-6.22L147.10-6.22Q146.88-6.22 146.79-6.13Q146.69-6.05 146.69-5.81L146.69-5.81L146.69 4.39Q146.69 4.61 146.79 4.70Q146.88 4.80 147.10 4.80L147.10 4.80Z"/></g><g transform="matrix(0.2266806640625001 0 0 0.2266806640625001 245.57384374999992 288.53025)"  >
<g style=""   >
		<g transform="matrix(1 0 0 1 0 -32)"  >
<path style="stroke: none; stroke-width: 1; stroke-dasharray: none; stroke-linecap: butt; stroke-dashoffset: 0; stroke-linejoin: miter; stroke-miterlimit: 4; fill: rgb(0,0,0); fill-rule: nonzero; opacity: 1;"  transform=" translate(-256, -224)" d="M 304.176 277.335 A 31.959 31.959 0 0 1 297.013 264 H 280 V 248 h 17.013 A 32.118 32.118 0 0 1 320 225.013 V 224 a 64 64 0 0 0 -128 0 v 64 h 96.862 A 56.215 56.215 0 0 1 304.176 277.335 Z" stroke-linecap="round" />
</g>
		<g transform="matrix(1 0 0 1 0 -120.19999999999999)"  >
<path style="stroke: none; stroke-width: 1; stroke-dasharray: none; stroke-linecap: butt; stroke-dashoffset: 0; stroke-linejoin: miter; stroke-miterlimit: 4; fill: rgb(0,0,0); fill-rule: nonzero; opacity: 1;"  transform=" translate(-256, -135.8)" d="M 248 127.2 V 144.4 q 3.948 -0.394 8 -0.4 t 8 0.4 V 127.2 a 40.154 40.154 0 0 1 -16 0 Z" stroke-linecap="round" />
</g>
		<g transform="matrix(1 0 0 1 72 0)"  >
<circle style="stroke: none; stroke-width: 1; stroke-dasharray: none; stroke-linecap: butt; stroke-dashoffset: 0; stroke-linejoin: miter; stroke-miterlimit: 4; fill: rgb(0,0,0); fill-rule: nonzero; opacity: 1;"  cx="0" cy="0" r="16" />
</g>
		<g transform="matrix(1 0 0 1 0 -168)"  >
<path style="stroke: none; stroke-width: 1; stroke-dasharray: none; stroke-linecap: butt; stroke-dashoffset: 0; stroke-linejoin: miter; stroke-miterlimit: 4; fill: rgb(0,0,0); fill-rule: nonzero; opacity: 1;"  transform=" translate(-256, -88)" d="M 256 112 a 24 24 0 1 0 -24 -24 A 24.028 24.028 0 0 0 256 112 Z m -8 -32 h 16 V 96 H 248 Z" stroke-linecap="round" />
</g>
		<g transform="matrix(1 0 0 1 -127.5 104.5)"  >
<polygon style="stroke: none; stroke-width: 1; stroke-dasharray: none; stroke-linecap: butt; stroke-dashoffset: 0; stroke-linejoin: miter; stroke-miterlimit: 4; fill: rgb(0,0,0); fill-rule: nonzero; opacity: 1;"  points="-8.354999999999997,-80 -15.627999999999993,80 15.627999999999993,80 8.354999999999997,-80 -8.354999999999997,-80 " />
</g>
		<g transform="matrix(1 0 0 1 36 -206.3485)"  >
<path style="stroke: none; stroke-width: 1; stroke-dasharray: none; stroke-linecap: butt; stroke-dashoffset: 0; stroke-linejoin: miter; stroke-miterlimit: 4; fill: rgb(0,0,0); fill-rule: nonzero; opacity: 1;"  transform=" translate(-292, -49.6515)" d="M 256 48 a 40 40 0 0 1 33.909 18.819 L 352 49.889 V 39.543 L 232 32.484 v 20.2 l 1.958 1.957 A 39.756 39.756 0 0 1 256 48 Z" stroke-linecap="round" />
</g>
		<g transform="matrix(1 0 0 1 72.5 140.5)"  >
<rect style="stroke: none; stroke-width: 1; stroke-dasharray: none; stroke-linecap: butt; stroke-dashoffset: 0; stroke-linejoin: miter; stroke-miterlimit: 4; fill: rgb(0,0,0); fill-rule: nonzero; opacity: 1;"  x="-40" y="-36" rx="0" ry="0" width="80" height="72" />
</g>
		<g transform="matrix(1 0 0 1 -23 196)"  >
<path style="stroke: none; stroke-width: 1; stroke-dasharray: none; stroke-linecap: butt; stroke-dashoffset: 0; stroke-linejoin: miter; stroke-miterlimit: 4; fill: rgb(0,0,0); fill-rule: nonzero; opacity: 1;"  transform=" translate(-233, -452)" d="M 272 424 H 192 v 40 a 16.019 16.019 0 0 0 16 16 h 66 a 25.843 25.843 0 0 1 -2 -10 Z" stroke-linecap="round" />
</g>
		<g transform="matrix(1 0 0 1 -21.293000000000006 100)"  >
<path style="stroke: none; stroke-width: 1; stroke-dasharray: none; stroke-linecap: butt; stroke-dashoffset: 0; stroke-linejoin: miter; stroke-miterlimit: 4; fill: rgb(0,0,0); fill-rule: nonzero; opacity: 1;"  transform=" translate(-234.707, -356)" d="M 192 408 h 80 V 328 a 55.662 55.662 0 0 1 5.414 -24 H 192 Z" stroke-linecap="round" />
</g>
		<g transform="matrix(1 0 0 1 72 60)"  >
<path style="stroke: none; stroke-width: 1; stroke-dasharray: none; stroke-linecap: butt; stroke-dashoffset: 0; stroke-linejoin: miter; stroke-miterlimit: 4; fill: rgb(0,0,0); fill-rule: nonzero; opacity: 1;"  transform=" translate(-328, -316)" d="M 328 288 a 40.045 40.045 0 0 0 -40 40 v 16 h 80 V 328 A 40.045 40.045 0 0 0 328 288 Z" stroke-linecap="round" />
</g>
		<g transform="matrix(1 0 0 1 72 208)"  >
<path style="stroke: none; stroke-width: 1; stroke-dasharray: none; stroke-linecap: butt; stroke-dashoffset: 0; stroke-linejoin: miter; stroke-miterlimit: 4; fill: rgb(0,0,0); fill-rule: nonzero; opacity: 1;"  transform=" translate(-328, -464)" d="M 288 470 a 10.011 10.011 0 0 0 10 10 h 60 a 10.011 10.011 0 0 0 10 -10 V 448 H 288 Z" stroke-linecap="round" />
</g>
		<g transform="matrix(1 0 0 1 108.02199999999999 -30.9555)"  >
<path style="stroke: none; stroke-width: 1; stroke-dasharray: none; stroke-linecap: butt; stroke-dashoffset: 0; stroke-linejoin: miter; stroke-miterlimit: 4; fill: rgb(0,0,0); fill-rule: nonzero; opacity: 1;"  transform=" translate(-364.022, -225.0445)" d="M 351.29 234.089 L 354.423 232 H 392 V 216 H 352 a 8 8 0 0 0 -4.438 1.344 l -11.518 7.681 Z" stroke-linecap="round" />
</g>
		<g transform="matrix(1 0 0 1 119.99350000000003 0.5)"  >
<rect style="stroke: none; stroke-width: 1; stroke-dasharray: none; stroke-linecap: butt; stroke-dashoffset: 0; stroke-linejoin: miter; stroke-miterlimit: 4; fill: rgb(0,0,0); fill-rule: nonzero; opacity: 1;"  x="-16.5065" y="-8" rx="0" ry="0" width="33.013" height="16" />
</g>
		<g transform="matrix(1 0 0 1 -87.5655 -83.87200000000003)"  >
<path style="stroke: none; stroke-width: 1; stroke-dasharray: none; stroke-linecap: butt; stroke-dashoffset: 0; stroke-linejoin: miter; stroke-miterlimit: 4; fill: rgb(0,0,0); fill-rule: nonzero; opacity: 1;"  transform=" translate(-168.4345, -172.128)" d="M 216.759 80.256 A 104.133 104.133 0 0 0 120 184 v 80 h 16 V 184 a 88.116 88.116 0 0 1 80.869 -87.71 Z" stroke-linecap="round" />
</g>
		<g transform="matrix(1 0 0 1 71.76849999999999 -157.963)"  >
<polyline style="stroke: none; stroke-width: 1; stroke-dasharray: none; stroke-linecap: butt; stroke-dashoffset: 0; stroke-linejoin: miter; stroke-miterlimit: 4; fill: rgb(0,0,0); fill-rule: nonzero; opacity: 1;"  points="-33.662499999999994,2.118000000000002 30.800500000000028,13.833999999999996 33.662499999999994,-1.9079999999999941 -31.95349999999999,-13.833999999999996 " />
</g>
</g>
</g>
</svg>